# xmcd
#
# Track frame offsets: 
#        150
#        12300
#        26645
#        40490
#        52807
#        66770
#        80262
#        92645
#        105807
#        118547
#        132427
#        147140
#        159662
#        173730
#
# Disc length: 2491 seconds
#
# Revision: 0
# Processed by: cddbd v1.5.2PL0 Copyright (c) Steve Scherf et al.
# Submitted via: ExactAudioCopy v0.99pb5
#
DISCID=ab09b90e
DTITLE=LITTLE WALTER - THE BEST OF LITTELE WALTER
DYEAR=1900
DGENRE=Blues
TTITLE0=MY BABE
TTITLE1=SAD HOURS
TTITLE2=YOU'RE SO FINE
TTITLE3=LAST NIGHT
TTITLE4=BLUES WITH A FEELING
TTITLE5=CAN'T HOLD OUT MUCH LONGER
TTITLE6=JUKE
TTITLE7=MEAN OLD WORLD
TTITLE8=OFF THE WALL
TTITLE9=YOU BETTER WATCH YOURSELF
TTITLE10=BLUE LIGHTS
TTITLE11=TELL ME MAMA
TTITLE12=JUKE (ALTERNATE TAKE)
TTITLE13=OFF THE WALL (ALTERNATE TAKE)
EXTD=
EXTT0=
EXTT1=
EXTT2=
EXTT3=
EXTT4=
EXTT5=
EXTT6=
EXTT7=
EXTT8=
EXTT9=
EXTT10=
EXTT11=
EXTT12=
EXTT13=
PLAYORDER=
